<svg width="48" height="42" viewBox="0 0 48 42" fill="none" xmlns="http://www.w3.org/2000/svg">
<path d="M1.5 35.25C1.5 38.1562 3.84375 40.5 6.75 40.5H47.25C47.625 40.5 48 40.875 48 41.25C48 41.7188 47.625 42 47.25 42H6.75C3 42 0 39 0 35.25V0.75C0 0.375 0.28125 0 0.75 0C1.125 0 1.5 0.375 1.5 0.75V35.25ZM44.25 9C44.625 9 45 9.375 45 9.75V21C45 21.4688 44.625 21.75 44.25 21.75C43.7812 21.75 43.5 21.4688 43.5 21V11.625L27.4688 27.5625C27.1875 27.8438 26.7188 27.8438 26.4375 27.5625L18 19.125L9.46875 27.5625C9.1875 27.8438 8.71875 27.8438 8.4375 27.5625C8.15625 27.2812 8.15625 26.8125 8.4375 26.5312L17.4375 17.5312C17.7188 17.25 18.1875 17.25 18.4688 17.5312L27 25.9688L42.375 10.5H33C32.5312 10.5 32.25 10.2188 32.25 9.75C32.25 9.375 32.5312 9 33 9H44.25Z" fill="#FD7762"/>
</svg>
