<svg width="502" height="284" viewBox="0 0 502 284" fill="none" xmlns="http://www.w3.org/2000/svg">
<path d="M4.184 53V2.384H11.096L31.616 35.216H27.656L48.104 2.384H55.016V53H45.296V19.16L47.168 19.736L32.912 42.632H26.288L12.032 19.736L13.976 19.16V53H4.184ZM80.9799 53.72C77.3319 53.72 74.0919 52.952 71.2599 51.416C68.4279 49.832 66.1719 47.672 64.4919 44.936C62.8599 42.2 62.0439 39.08 62.0439 35.576C62.0439 32.12 62.8359 29.048 64.4199 26.36C66.0519 23.624 68.2599 21.464 71.0439 19.88C73.8279 18.248 76.9239 17.432 80.3319 17.432C83.6919 17.432 86.6439 18.2 89.1879 19.736C91.7799 21.224 93.7959 23.288 95.2359 25.928C96.7239 28.52 97.4679 31.472 97.4679 34.784C97.4679 35.408 97.4199 36.056 97.3239 36.728C97.2759 37.352 97.1559 38.072 96.9639 38.888L67.7319 38.96V31.904L92.5719 31.832L88.7559 34.784C88.6599 32.72 88.2759 30.992 87.6039 29.6C86.9799 28.208 86.0439 27.152 84.7959 26.432C83.5959 25.664 82.1079 25.28 80.3319 25.28C78.4599 25.28 76.8279 25.712 75.4359 26.576C74.0439 27.392 72.9639 28.568 72.1959 30.104C71.4759 31.592 71.1159 33.368 71.1159 35.432C71.1159 37.544 71.4999 39.392 72.2679 40.976C73.0839 42.512 74.2359 43.712 75.7239 44.576C77.2119 45.392 78.9399 45.8 80.9079 45.8C82.6839 45.8 84.2919 45.512 85.7319 44.936C87.1719 44.312 88.4199 43.4 89.4759 42.2L95.0199 47.744C93.3399 49.712 91.2759 51.2 88.8279 52.208C86.4279 53.216 83.8119 53.72 80.9799 53.72ZM119.933 53.72C116.285 53.72 113.045 52.952 110.213 51.416C107.381 49.832 105.125 47.672 103.445 44.936C101.813 42.2 100.997 39.08 100.997 35.576C100.997 32.12 101.789 29.048 103.373 26.36C105.005 23.624 107.213 21.464 109.997 19.88C112.781 18.248 115.877 17.432 119.285 17.432C122.645 17.432 125.597 18.2 128.141 19.736C130.733 21.224 132.749 23.288 134.189 25.928C135.677 28.52 136.421 31.472 136.421 34.784C136.421 35.408 136.373 36.056 136.277 36.728C136.229 37.352 136.109 38.072 135.917 38.888L106.685 38.96V31.904L131.525 31.832L127.709 34.784C127.613 32.72 127.229 30.992 126.557 29.6C125.933 28.208 124.997 27.152 123.749 26.432C122.549 25.664 121.061 25.28 119.285 25.28C117.413 25.28 115.781 25.712 114.389 26.576C112.997 27.392 111.917 28.568 111.149 30.104C110.429 31.592 110.069 33.368 110.069 35.432C110.069 37.544 110.453 39.392 111.221 40.976C112.037 42.512 113.189 43.712 114.677 44.576C116.165 45.392 117.893 45.8 119.861 45.8C121.637 45.8 123.245 45.512 124.685 44.936C126.125 44.312 127.373 43.4 128.429 42.2L133.973 47.744C132.293 49.712 130.229 51.2 127.781 52.208C125.381 53.216 122.765 53.72 119.933 53.72ZM146.522 53V3.752H155.954V53H146.522ZM138.386 26.504V18.224H164.09V26.504H138.386ZM188.569 53V3.752H198.001V53H188.569ZM180.433 26.504V18.224H206.137V26.504H180.433ZM234.842 53V33.056C234.842 30.992 234.194 29.312 232.898 28.016C231.602 26.72 229.922 26.072 227.858 26.072C226.514 26.072 225.314 26.36 224.258 26.936C223.202 27.512 222.362 28.328 221.738 29.384C221.162 30.44 220.874 31.664 220.874 33.056L217.202 31.184C217.202 28.448 217.778 26.072 218.93 24.056C220.082 21.992 221.666 20.384 223.682 19.232C225.746 18.08 228.098 17.504 230.738 17.504C233.378 17.504 235.706 18.08 237.722 19.232C239.786 20.384 241.394 21.968 242.546 23.984C243.698 26 244.274 28.328 244.274 30.968V53H234.842ZM211.442 53V0.943996H220.874V53H211.442ZM268.503 53.72C264.855 53.72 261.615 52.952 258.783 51.416C255.951 49.832 253.695 47.672 252.015 44.936C250.383 42.2 249.567 39.08 249.567 35.576C249.567 32.12 250.359 29.048 251.943 26.36C253.575 23.624 255.783 21.464 258.567 19.88C261.351 18.248 264.447 17.432 267.855 17.432C271.215 17.432 274.167 18.2 276.711 19.736C279.303 21.224 281.319 23.288 282.759 25.928C284.247 28.52 284.991 31.472 284.991 34.784C284.991 35.408 284.943 36.056 284.847 36.728C284.799 37.352 284.679 38.072 284.487 38.888L255.255 38.96V31.904L280.095 31.832L276.279 34.784C276.183 32.72 275.799 30.992 275.127 29.6C274.503 28.208 273.567 27.152 272.319 26.432C271.119 25.664 269.631 25.28 267.855 25.28C265.983 25.28 264.351 25.712 262.959 26.576C261.567 27.392 260.487 28.568 259.719 30.104C258.999 31.592 258.639 33.368 258.639 35.432C258.639 37.544 259.023 39.392 259.791 40.976C260.607 42.512 261.759 43.712 263.247 44.576C264.735 45.392 266.463 45.8 268.431 45.8C270.207 45.8 271.815 45.512 273.255 44.936C274.695 44.312 275.943 43.4 276.999 42.2L282.543 47.744C280.863 49.712 278.799 51.2 276.351 52.208C273.951 53.216 271.335 53.72 268.503 53.72ZM309.495 53V14.48C309.495 11.696 310.095 9.248 311.295 7.136C312.495 4.976 314.199 3.272 316.407 2.024C318.615 0.775999 321.207 0.151998 324.183 0.151998C326.439 0.151998 328.383 0.535997 330.015 1.304C331.647 2.072 333.111 3.128 334.407 4.472L328.431 10.52C327.903 9.992 327.327 9.584 326.703 9.296C326.079 9.008 325.287 8.864 324.327 8.864C322.599 8.864 321.255 9.344 320.295 10.304C319.383 11.216 318.927 12.536 318.927 14.264V53H309.495ZM301.431 26.504V18.224H329.223V26.504H301.431ZM349.883 53.72C346.811 53.72 344.075 53.072 341.675 51.776C339.323 50.48 337.475 48.68 336.131 46.376C334.787 44.072 334.115 41.408 334.115 38.384V18.224H343.619V38.168C343.619 39.608 343.859 40.856 344.339 41.912C344.819 42.92 345.539 43.688 346.499 44.216C347.459 44.744 348.587 45.008 349.883 45.008C351.851 45.008 353.387 44.408 354.491 43.208C355.595 42.008 356.147 40.328 356.147 38.168V18.224H365.579V38.384C365.579 41.456 364.907 44.144 363.563 46.448C362.267 48.752 360.419 50.552 358.019 51.848C355.667 53.096 352.955 53.72 349.883 53.72ZM378.202 53V3.752H387.634V53H378.202ZM370.066 26.504V18.224H395.77V26.504H370.066ZM415.906 53.72C412.834 53.72 410.098 53.072 407.698 51.776C405.346 50.48 403.498 48.68 402.154 46.376C400.81 44.072 400.138 41.408 400.138 38.384V18.224H409.642V38.168C409.642 39.608 409.882 40.856 410.362 41.912C410.842 42.92 411.562 43.688 412.522 44.216C413.482 44.744 414.61 45.008 415.906 45.008C417.874 45.008 419.41 44.408 420.514 43.208C421.618 42.008 422.17 40.328 422.17 38.168V18.224H431.602V38.384C431.602 41.456 430.93 44.144 429.586 46.448C428.29 48.752 426.442 50.552 424.042 51.848C421.69 53.096 418.978 53.72 415.906 53.72ZM439.114 53V18.224H448.546V53H439.114ZM448.546 33.776L444.874 31.328C445.306 27.056 446.554 23.696 448.618 21.248C450.682 18.752 453.658 17.504 457.546 17.504C459.226 17.504 460.738 17.792 462.082 18.368C463.426 18.896 464.65 19.784 465.754 21.032L459.85 27.8C459.322 27.224 458.674 26.792 457.906 26.504C457.186 26.216 456.346 26.072 455.386 26.072C453.37 26.072 451.714 26.72 450.418 28.016C449.17 29.264 448.546 31.184 448.546 33.776ZM484.714 53.72C481.066 53.72 477.826 52.952 474.994 51.416C472.162 49.832 469.906 47.672 468.226 44.936C466.594 42.2 465.778 39.08 465.778 35.576C465.778 32.12 466.57 29.048 468.154 26.36C469.786 23.624 471.994 21.464 474.778 19.88C477.562 18.248 480.658 17.432 484.066 17.432C487.426 17.432 490.378 18.2 492.922 19.736C495.514 21.224 497.53 23.288 498.97 25.928C500.458 28.52 501.202 31.472 501.202 34.784C501.202 35.408 501.154 36.056 501.058 36.728C501.01 37.352 500.89 38.072 500.698 38.888L471.466 38.96V31.904L496.306 31.832L492.49 34.784C492.394 32.72 492.01 30.992 491.338 29.6C490.714 28.208 489.778 27.152 488.53 26.432C487.33 25.664 485.842 25.28 484.066 25.28C482.194 25.28 480.562 25.712 479.17 26.576C477.778 27.392 476.698 28.568 475.93 30.104C475.21 31.592 474.85 33.368 474.85 35.432C474.85 37.544 475.234 39.392 476.002 40.976C476.818 42.512 477.97 43.712 479.458 44.576C480.946 45.392 482.674 45.8 484.642 45.8C486.418 45.8 488.026 45.512 489.466 44.936C490.906 44.312 492.154 43.4 493.21 42.2L498.754 47.744C497.074 49.712 495.01 51.2 492.562 52.208C490.162 53.216 487.546 53.72 484.714 53.72ZM19.52 125.72C16.016 125.72 12.848 124.928 10.016 123.344C7.232 121.712 5 119.528 3.32 116.792C1.688 114.008 0.872 110.912 0.872 107.504C0.872 104.096 1.688 101.048 3.32 98.36C4.952 95.624 7.184 93.464 10.016 91.88C12.848 90.248 15.992 89.432 19.448 89.432C23 89.432 26.168 90.248 28.952 91.88C31.784 93.464 34.016 95.624 35.648 98.36C37.28 101.048 38.096 104.096 38.096 107.504C38.096 110.912 37.28 114.008 35.648 116.792C34.016 119.528 31.784 121.712 28.952 123.344C26.168 124.928 23.024 125.72 19.52 125.72ZM19.448 116.936C21.224 116.936 22.784 116.552 24.128 115.784C25.52 114.968 26.576 113.864 27.296 112.472C28.064 111.032 28.448 109.4 28.448 107.576C28.448 105.752 28.064 104.144 27.296 102.752C26.528 101.36 25.472 100.28 24.128 99.512C22.784 98.696 21.224 98.288 19.448 98.288C17.72 98.288 16.184 98.696 14.84 99.512C13.496 100.28 12.44 101.36 11.672 102.752C10.904 104.144 10.52 105.752 10.52 107.576C10.52 109.4 10.904 111.032 11.672 112.472C12.44 113.864 13.496 114.968 14.84 115.784C16.184 116.552 17.72 116.936 19.448 116.936ZM47.9324 125V86.48C47.9324 83.696 48.5324 81.248 49.7324 79.136C50.9324 76.976 52.6364 75.272 54.8444 74.024C57.0524 72.776 59.6444 72.152 62.6204 72.152C64.8764 72.152 66.8204 72.536 68.4524 73.304C70.0844 74.072 71.5484 75.128 72.8444 76.472L66.8684 82.52C66.3404 81.992 65.7644 81.584 65.1404 81.296C64.5164 81.008 63.7244 80.864 62.7644 80.864C61.0364 80.864 59.6924 81.344 58.7324 82.304C57.8204 83.216 57.3644 84.536 57.3644 86.264V125H47.9324ZM39.8684 98.504V90.224H67.6604V98.504H39.8684ZM98.495 125.288L83.951 90.224H94.175L103.823 117.008H100.367L110.375 90.224H120.671L105.191 125.216L98.495 125.288ZM88.847 139.544L99.431 117.152L105.191 125.216L98.855 139.544H88.847ZM140.247 125.72C136.743 125.72 133.575 124.928 130.743 123.344C127.959 121.712 125.727 119.528 124.047 116.792C122.415 114.008 121.599 110.912 121.599 107.504C121.599 104.096 122.415 101.048 124.047 98.36C125.679 95.624 127.911 93.464 130.743 91.88C133.575 90.248 136.719 89.432 140.175 89.432C143.727 89.432 146.895 90.248 149.679 91.88C152.511 93.464 154.743 95.624 156.375 98.36C158.007 101.048 158.823 104.096 158.823 107.504C158.823 110.912 158.007 114.008 156.375 116.792C154.743 119.528 152.511 121.712 149.679 123.344C146.895 124.928 143.751 125.72 140.247 125.72ZM140.175 116.936C141.951 116.936 143.511 116.552 144.855 115.784C146.247 114.968 147.303 113.864 148.023 112.472C148.791 111.032 149.175 109.4 149.175 107.576C149.175 105.752 148.791 104.144 148.023 102.752C147.255 101.36 146.199 100.28 144.855 99.512C143.511 98.696 141.951 98.288 140.175 98.288C138.447 98.288 136.911 98.696 135.567 99.512C134.223 100.28 133.167 101.36 132.399 102.752C131.631 104.144 131.247 105.752 131.247 107.576C131.247 109.4 131.631 111.032 132.399 112.472C133.167 113.864 134.223 114.968 135.567 115.784C136.911 116.552 138.447 116.936 140.175 116.936ZM179.727 125.72C176.655 125.72 173.919 125.072 171.519 123.776C169.167 122.48 167.319 120.68 165.975 118.376C164.631 116.072 163.959 113.408 163.959 110.384V90.224H173.463V110.168C173.463 111.608 173.703 112.856 174.183 113.912C174.663 114.92 175.383 115.688 176.343 116.216C177.303 116.744 178.431 117.008 179.727 117.008C181.695 117.008 183.231 116.408 184.335 115.208C185.439 114.008 185.991 112.328 185.991 110.168V90.224H195.423V110.384C195.423 113.456 194.751 116.144 193.407 118.448C192.111 120.752 190.263 122.552 187.863 123.848C185.511 125.096 182.799 125.72 179.727 125.72ZM202.934 125V90.224H212.366V125H202.934ZM212.366 105.776L208.694 103.328C209.126 99.056 210.374 95.696 212.438 93.248C214.502 90.752 217.478 89.504 221.366 89.504C223.046 89.504 224.558 89.792 225.902 90.368C227.246 90.896 228.47 91.784 229.574 93.032L223.67 99.8C223.142 99.224 222.494 98.792 221.726 98.504C221.006 98.216 220.166 98.072 219.206 98.072C217.19 98.072 215.534 98.72 214.238 100.016C212.99 101.264 212.366 103.184 212.366 105.776ZM8.288 269V219.752H17.72V269H8.288ZM0.152 242.504V234.224H25.856V242.504H0.152ZM46.6606 269.72C43.1566 269.72 39.9886 268.928 37.1566 267.344C34.3726 265.712 32.1406 263.528 30.4606 260.792C28.8286 258.008 28.0126 254.912 28.0126 251.504C28.0126 248.096 28.8286 245.048 30.4606 242.36C32.0926 239.624 34.3246 237.464 37.1566 235.88C39.9886 234.248 43.1326 233.432 46.5886 233.432C50.1406 233.432 53.3086 234.248 56.0926 235.88C58.9246 237.464 61.1566 239.624 62.7886 242.36C64.4206 245.048 65.2366 248.096 65.2366 251.504C65.2366 254.912 64.4206 258.008 62.7886 260.792C61.1566 263.528 58.9246 265.712 56.0926 267.344C53.3086 268.928 50.1646 269.72 46.6606 269.72ZM46.5886 260.936C48.3646 260.936 49.9246 260.552 51.2686 259.784C52.6606 258.968 53.7166 257.864 54.4366 256.472C55.2046 255.032 55.5886 253.4 55.5886 251.576C55.5886 249.752 55.2046 248.144 54.4366 246.752C53.6686 245.36 52.6126 244.28 51.2686 243.512C49.9246 242.696 48.3646 242.288 46.5886 242.288C44.8606 242.288 43.3246 242.696 41.9806 243.512C40.6366 244.28 39.5806 245.36 38.8126 246.752C38.0446 248.144 37.6606 249.752 37.6606 251.576C37.6606 253.4 38.0446 255.032 38.8126 256.472C39.5806 257.864 40.6366 258.968 41.9806 259.784C43.3246 260.552 44.8606 260.936 46.5886 260.936ZM85.9968 269.72C82.7808 269.72 79.9008 268.928 77.3568 267.344C74.8128 265.76 72.7968 263.6 71.3088 260.864C69.8688 258.128 69.1488 255.056 69.1488 251.648C69.1488 248.192 69.8688 245.096 71.3088 242.36C72.7968 239.624 74.7888 237.464 77.2848 235.88C79.8288 234.296 82.7328 233.504 85.9968 233.504C88.4928 233.504 90.7248 234.008 92.6928 235.016C94.7088 236.024 96.3168 237.44 97.5168 239.264C98.7648 241.04 99.4368 243.056 99.5328 245.312V257.696C99.4368 259.952 98.7888 261.992 97.5888 263.816C96.3888 265.64 94.7808 267.08 92.7648 268.136C90.7488 269.192 88.4928 269.72 85.9968 269.72ZM87.5808 261.008C89.3568 261.008 90.8928 260.624 92.1888 259.856C93.5328 259.04 94.5648 257.936 95.2848 256.544C96.0528 255.104 96.4368 253.448 96.4368 251.576C96.4368 249.752 96.0528 248.144 95.2848 246.752C94.5648 245.312 93.5328 244.208 92.1888 243.44C90.8928 242.624 89.3808 242.216 87.6528 242.216C85.8768 242.216 84.3168 242.624 82.9728 243.44C81.6768 244.256 80.6448 245.36 79.8768 246.752C79.1568 248.144 78.7968 249.752 78.7968 251.576C78.7968 253.448 79.1568 255.104 79.8768 256.544C80.6448 257.936 81.7008 259.04 83.0448 259.856C84.3888 260.624 85.9008 261.008 87.5808 261.008ZM105.293 269H95.9328V259.64L97.4448 251.144L95.8608 242.792V216.944H105.293V269ZM128.181 269.72C125.013 269.72 122.157 268.928 119.613 267.344C117.069 265.76 115.077 263.6 113.637 260.864C112.197 258.128 111.477 255.056 111.477 251.648C111.477 248.192 112.197 245.096 113.637 242.36C115.077 239.624 117.069 237.464 119.613 235.88C122.157 234.296 125.013 233.504 128.181 233.504C130.677 233.504 132.909 234.008 134.877 235.016C136.845 236.024 138.405 237.44 139.557 239.264C140.757 241.04 141.405 243.056 141.501 245.312V257.84C141.405 260.144 140.757 262.184 139.557 263.96C138.405 265.736 136.845 267.152 134.877 268.208C132.909 269.216 130.677 269.72 128.181 269.72ZM129.909 261.008C132.549 261.008 134.685 260.144 136.317 258.416C137.949 256.64 138.765 254.36 138.765 251.576C138.765 249.752 138.381 248.144 137.613 246.752C136.893 245.312 135.861 244.208 134.517 243.44C133.221 242.624 131.685 242.216 129.909 242.216C128.181 242.216 126.645 242.624 125.301 243.44C124.005 244.208 122.973 245.312 122.205 246.752C121.485 248.144 121.125 249.752 121.125 251.576C121.125 253.448 121.485 255.104 122.205 256.544C122.973 257.936 124.005 259.04 125.301 259.856C126.645 260.624 128.181 261.008 129.909 261.008ZM138.261 269V259.64L139.773 251.144L138.261 242.792V234.224H147.621V269H138.261ZM166.909 269.288L152.365 234.224H162.589L172.237 261.008H168.781L178.789 234.224H189.085L173.605 269.216L166.909 269.288ZM157.261 283.544L167.845 261.152L173.605 269.216L167.269 283.544H157.261Z" fill="white"/>
<path d="M19.52 197.72C16.016 197.72 12.848 196.928 10.016 195.344C7.232 193.712 5 191.528 3.32 188.792C1.688 186.008 0.872 182.912 0.872 179.504C0.872 176.096 1.688 173.048 3.32 170.36C4.952 167.624 7.184 165.464 10.016 163.88C12.848 162.248 15.992 161.432 19.448 161.432C23 161.432 26.168 162.248 28.952 163.88C31.784 165.464 34.016 167.624 35.648 170.36C37.28 173.048 38.096 176.096 38.096 179.504C38.096 182.912 37.28 186.008 35.648 188.792C34.016 191.528 31.784 193.712 28.952 195.344C26.168 196.928 23.024 197.72 19.52 197.72ZM19.448 188.936C21.224 188.936 22.784 188.552 24.128 187.784C25.52 186.968 26.576 185.864 27.296 184.472C28.064 183.032 28.448 181.4 28.448 179.576C28.448 177.752 28.064 176.144 27.296 174.752C26.528 173.36 25.472 172.28 24.128 171.512C22.784 170.696 21.224 170.288 19.448 170.288C17.72 170.288 16.184 170.696 14.84 171.512C13.496 172.28 12.44 173.36 11.672 174.752C10.904 176.144 10.52 177.752 10.52 179.576C10.52 181.4 10.904 183.032 11.672 184.472C12.44 185.864 13.496 186.968 14.84 187.784C16.184 188.552 17.72 188.936 19.448 188.936ZM44.1682 197V162.224H53.6002V197H44.1682ZM53.6002 177.776L49.9282 175.328C50.3602 171.056 51.6082 167.696 53.6722 165.248C55.7362 162.752 58.7122 161.504 62.6002 161.504C64.2802 161.504 65.7922 161.792 67.1362 162.368C68.4802 162.896 69.7042 163.784 70.8082 165.032L64.9042 171.8C64.3762 171.224 63.7282 170.792 62.9602 170.504C62.2402 170.216 61.4002 170.072 60.4402 170.072C58.4242 170.072 56.7682 170.72 55.4722 172.016C54.2242 173.264 53.6002 175.184 53.6002 177.776ZM87.6809 212.408C83.9849 212.408 80.7209 211.736 77.8889 210.392C75.0569 209.096 72.8009 207.248 71.1209 204.848L77.0969 198.872C78.4409 200.456 79.9289 201.656 81.5609 202.472C83.2409 203.336 85.2569 203.768 87.6089 203.768C90.5369 203.768 92.8409 203.024 94.5209 201.536C96.2489 200.048 97.1129 197.984 97.1129 195.344V186.632L98.6969 179L97.1849 171.368V162.224H106.545V195.2C106.545 198.656 105.729 201.656 104.097 204.2C102.513 206.792 100.305 208.808 97.4729 210.248C94.6409 211.688 91.3769 212.408 87.6809 212.408ZM87.2489 196.064C84.1289 196.064 81.3209 195.32 78.8249 193.832C76.3289 192.296 74.3609 190.208 72.9209 187.568C71.5289 184.928 70.8329 181.976 70.8329 178.712C70.8329 175.448 71.5289 172.52 72.9209 169.928C74.3609 167.336 76.3289 165.296 78.8249 163.808C81.3209 162.272 84.1289 161.504 87.2489 161.504C89.8409 161.504 92.1209 162.008 94.0889 163.016C96.1049 164.024 97.6889 165.416 98.8409 167.192C99.9929 168.92 100.617 170.96 100.713 173.312V184.256C100.617 186.56 99.9689 188.624 98.7689 190.448C97.6169 192.224 96.0329 193.616 94.0169 194.624C92.0489 195.584 89.7929 196.064 87.2489 196.064ZM89.1209 187.496C90.8489 187.496 92.3369 187.136 93.5849 186.416C94.8809 185.648 95.8889 184.616 96.6089 183.32C97.3289 181.976 97.6889 180.464 97.6889 178.784C97.6889 177.056 97.3289 175.544 96.6089 174.248C95.8889 172.952 94.8809 171.944 93.5849 171.224C92.3369 170.456 90.8489 170.072 89.1209 170.072C87.3929 170.072 85.8809 170.456 84.5849 171.224C83.2889 171.944 82.2809 172.976 81.5609 174.32C80.8409 175.616 80.4809 177.104 80.4809 178.784C80.4809 180.416 80.8409 181.904 81.5609 183.248C82.2809 184.544 83.2889 185.576 84.5849 186.344C85.8809 187.112 87.3929 187.496 89.1209 187.496ZM129.376 197.72C126.208 197.72 123.352 196.928 120.808 195.344C118.264 193.76 116.272 191.6 114.832 188.864C113.392 186.128 112.672 183.056 112.672 179.648C112.672 176.192 113.392 173.096 114.832 170.36C116.272 167.624 118.264 165.464 120.808 163.88C123.352 162.296 126.208 161.504 129.376 161.504C131.872 161.504 134.104 162.008 136.072 163.016C138.04 164.024 139.6 165.44 140.752 167.264C141.952 169.04 142.6 171.056 142.696 173.312V185.84C142.6 188.144 141.952 190.184 140.752 191.96C139.6 193.736 138.04 195.152 136.072 196.208C134.104 197.216 131.872 197.72 129.376 197.72ZM131.104 189.008C133.744 189.008 135.88 188.144 137.512 186.416C139.144 184.64 139.96 182.36 139.96 179.576C139.96 177.752 139.576 176.144 138.808 174.752C138.088 173.312 137.056 172.208 135.712 171.44C134.416 170.624 132.88 170.216 131.104 170.216C129.376 170.216 127.84 170.624 126.496 171.44C125.2 172.208 124.168 173.312 123.4 174.752C122.68 176.144 122.32 177.752 122.32 179.576C122.32 181.448 122.68 183.104 123.4 184.544C124.168 185.936 125.2 187.04 126.496 187.856C127.84 188.624 129.376 189.008 131.104 189.008ZM139.456 197V187.64L140.968 179.144L139.456 170.792V162.224H148.816V197H139.456ZM180.56 197V177.056C180.56 174.992 179.912 173.312 178.616 172.016C177.32 170.72 175.64 170.072 173.576 170.072C172.232 170.072 171.032 170.36 169.976 170.936C168.92 171.512 168.08 172.328 167.456 173.384C166.88 174.44 166.592 175.664 166.592 177.056L162.92 175.184C162.92 172.448 163.496 170.072 164.648 168.056C165.848 165.992 167.48 164.384 169.544 163.232C171.656 162.08 174.032 161.504 176.672 161.504C179.216 161.504 181.496 162.152 183.512 163.448C185.528 164.696 187.112 166.352 188.264 168.416C189.416 170.432 189.992 172.616 189.992 174.968V197H180.56ZM157.16 197V162.224H166.592V197H157.16ZM197.59 197V162.224H207.094V197H197.59ZM202.342 156.608C200.806 156.608 199.534 156.104 198.526 155.096C197.518 154.04 197.014 152.744 197.014 151.208C197.014 149.72 197.518 148.448 198.526 147.392C199.534 146.336 200.806 145.808 202.342 145.808C203.926 145.808 205.198 146.336 206.158 147.392C207.166 148.448 207.67 149.72 207.67 151.208C207.67 152.744 207.166 154.04 206.158 155.096C205.198 156.104 203.926 156.608 202.342 156.608ZM213.001 191.6L231.433 167.624H242.809L224.377 191.6H213.001ZM213.001 197V191.6L220.489 188.792H242.377V197H213.001ZM214.297 170.432V162.224H242.809V167.624L235.249 170.432H214.297ZM262.9 197.72C259.732 197.72 256.876 196.928 254.332 195.344C251.788 193.76 249.796 191.6 248.356 188.864C246.916 186.128 246.196 183.056 246.196 179.648C246.196 176.192 246.916 173.096 248.356 170.36C249.796 167.624 251.788 165.464 254.332 163.88C256.876 162.296 259.732 161.504 262.9 161.504C265.396 161.504 267.628 162.008 269.596 163.016C271.564 164.024 273.124 165.44 274.276 167.264C275.476 169.04 276.124 171.056 276.22 173.312V185.84C276.124 188.144 275.476 190.184 274.276 191.96C273.124 193.736 271.564 195.152 269.596 196.208C267.628 197.216 265.396 197.72 262.9 197.72ZM264.628 189.008C267.268 189.008 269.404 188.144 271.036 186.416C272.668 184.64 273.484 182.36 273.484 179.576C273.484 177.752 273.1 176.144 272.332 174.752C271.612 173.312 270.58 172.208 269.236 171.44C267.94 170.624 266.404 170.216 264.628 170.216C262.9 170.216 261.364 170.624 260.02 171.44C258.724 172.208 257.692 173.312 256.924 174.752C256.204 176.144 255.844 177.752 255.844 179.576C255.844 181.448 256.204 183.104 256.924 184.544C257.692 185.936 258.724 187.04 260.02 187.856C261.364 188.624 262.9 189.008 264.628 189.008ZM272.98 197V187.64L274.492 179.144L272.98 170.792V162.224H282.34V197H272.98ZM295.796 197V147.752H305.228V197H295.796ZM287.66 170.504V162.224H313.364V170.504H287.66ZM318.668 197V162.224H328.172V197H318.668ZM323.42 156.608C321.884 156.608 320.612 156.104 319.604 155.096C318.596 154.04 318.092 152.744 318.092 151.208C318.092 149.72 318.596 148.448 319.604 147.392C320.612 146.336 321.884 145.808 323.42 145.808C325.004 145.808 326.276 146.336 327.236 147.392C328.244 148.448 328.748 149.72 328.748 151.208C328.748 152.744 328.244 154.04 327.236 155.096C326.276 156.104 325.004 156.608 323.42 156.608ZM352.872 197.72C349.368 197.72 346.2 196.928 343.368 195.344C340.584 193.712 338.352 191.528 336.672 188.792C335.04 186.008 334.224 182.912 334.224 179.504C334.224 176.096 335.04 173.048 336.672 170.36C338.304 167.624 340.536 165.464 343.368 163.88C346.2 162.248 349.344 161.432 352.8 161.432C356.352 161.432 359.52 162.248 362.304 163.88C365.136 165.464 367.368 167.624 369 170.36C370.632 173.048 371.448 176.096 371.448 179.504C371.448 182.912 370.632 186.008 369 188.792C367.368 191.528 365.136 193.712 362.304 195.344C359.52 196.928 356.376 197.72 352.872 197.72ZM352.8 188.936C354.576 188.936 356.136 188.552 357.48 187.784C358.872 186.968 359.928 185.864 360.648 184.472C361.416 183.032 361.8 181.4 361.8 179.576C361.8 177.752 361.416 176.144 360.648 174.752C359.88 173.36 358.824 172.28 357.48 171.512C356.136 170.696 354.576 170.288 352.8 170.288C351.072 170.288 349.536 170.696 348.192 171.512C346.848 172.28 345.792 173.36 345.024 174.752C344.256 176.144 343.872 177.752 343.872 179.576C343.872 181.4 344.256 183.032 345.024 184.472C345.792 185.864 346.848 186.968 348.192 187.784C349.536 188.552 351.072 188.936 352.8 188.936ZM400.92 197V177.056C400.92 174.992 400.272 173.312 398.976 172.016C397.68 170.72 396 170.072 393.936 170.072C392.592 170.072 391.392 170.36 390.336 170.936C389.28 171.512 388.44 172.328 387.816 173.384C387.24 174.44 386.952 175.664 386.952 177.056L383.28 175.184C383.28 172.448 383.856 170.072 385.008 168.056C386.208 165.992 387.84 164.384 389.904 163.232C392.016 162.08 394.392 161.504 397.032 161.504C399.576 161.504 401.856 162.152 403.872 163.448C405.888 164.696 407.472 166.352 408.624 168.416C409.776 170.432 410.352 172.616 410.352 174.968V197H400.92ZM377.52 197V162.224H386.952V197H377.52Z" fill="#26C1D9"/>
</svg>
